# xmcd CD database file
#
# Track frame offsets:
#	150
#	24901
#	34963
#	50928
#	69951
#	97972
#	123471
#	138300
#	157823
#	171041
#
# Disc length: 2594 seconds
#
# Revision: 3
# Processed by: cddbd v1.5.2PL0 Copyright (c) Steve Scherf et al.
# Submitted via: CDex 1.51
#
DISCID=7d0a200a
DTITLE=Roxy Music - Manifesto
DYEAR=1979
DGENRE=Rock
TTITLE0=Manifesto
TTITLE1=Trash
TTITLE2=Angel Eyes
TTITLE3=Still Falls The Rain
TTITLE4=Stranger Through The Years
TTITLE5=Ain't That So
TTITLE6=My Little Girl
TTITLE7=Dance Away
TTITLE8=Cry, Cry, Cry
TTITLE9=Spin Me Round
EXTD=YEAR: 1979
EXTT0=
EXTT1=
EXTT2=
EXTT3=
EXTT4=
EXTT5=
EXTT6=
EXTT7=
EXTT8=
EXTT9=
PLAYORDER=
